<?xml version="1.0" encoding="UTF-8"?>
<svg id="Camada_1" data-name="Camada 1" xmlns="http://www.w3.org/2000/svg" viewBox="0 0 219.05 200.3">
  <defs>
    <style>
      .cls-1 {
        fill: #f7e8ce;
      }
    </style>
  </defs>
  <g id="nmn2B8.tif">
    <g>
      <path class="cls-1" d="M219.05,100.19v3.42c-5.79,10.58-12.57,1.17-17.96-3.85l.02,71.66c-.03,14.75-10.57,27.39-25.46,28.87H43.85c-14.89-1.16-25.66-13.72-25.88-28.44v-72.09c-3.35,2.26-6.64,8.24-10.9,8.57-4.71.36-8.21-3.92-6.72-8.45.86-2.62,2.96-3.57,4.6-5.23,29.76-30.12,60.55-59.23,90.46-89.19,6.84-6.08,16.53-7.21,24.52-2.69,31.73,29.82,62.98,60.55,93.76,91.46,1.93,1.94,4.12,3.13,5.36,5.98ZM107.71,13.04c-.78.13-1.77.55-2.43.99L31.04,86.94l-.24,84.48c.57,8.42,4.83,14.71,13.5,16.02l130.06.02c8.62-.98,13.26-7.3,13.88-15.63l-.08-84.59c-7.18-7.93-15.24-15.04-22.81-22.53-15.54-15.37-31.54-32.83-47.68-47.28-3.24-2.9-5.15-5.2-9.96-4.38Z"/>
      <path class="cls-1" d="M128.78,95.49h21.6c2.46,0,5.14,3.82,5.37,6.18.82,8.47-.63,18.31-.06,26.93.06,1.95-3.17,5.38-4.88,5.38h-22.03v21.6c0,.58-1.55,3.32-2.12,3.87-1.04,1-2.24,1.36-3.63,1.5-8.75.85-18.9-.65-27.8-.05-1.88-.13-4.95-3.16-4.95-4.89v-22.03h-22.03c-1.73,0-4.76-3.07-4.89-4.95.58-8.93-.87-19.01-.05-27.79.13-1.39.7-2.83,1.73-3.83.51-.5,3.15-1.92,3.64-1.92h21.6v-22.03c0-1.71,3.43-4.94,5.38-4.88,8.62.57,18.46-.88,26.94-.06,2.36.23,6.18,2.91,6.18,5.37v21.6ZM115.95,81.37h-12.83v22.03c0,1.53-3.3,4.92-4.92,4.92h-22.03v12.83h21.6c1.7,0,5.35,3.63,5.35,5.35v21.6h12.83v-22.03c0-1.76,3.67-4.92,5.35-4.92h21.6v-12.83h-22.46c-1.07,0-4.49-3.43-4.49-4.49v-22.46Z"/>
    </g>
  </g>
</svg>