<?xml version="1.0" encoding="UTF-8"?>
<svg id="Camada_1" data-name="Camada 1" xmlns="http://www.w3.org/2000/svg" viewBox="0 0 208.72 208.72">
  <defs>
    <style>
      .cls-1 {
        fill: #f7e8ce;
      }
    </style>
  </defs>
  <path class="cls-1" d="M150.94,0L57.48.13C25.74.18-.05,26.04,0,57.78l.13,93.46c.05,31.74,25.9,57.53,57.64,57.48l93.46-.13c31.74-.05,57.53-25.91,57.48-57.64l-.13-93.46C208.54,25.74,182.69-.05,150.94,0h0ZM190.21,150.97c.03,21.54-17.46,39.08-39,39.11l-93.46.13c-21.54.03-39.08-17.46-39.11-39l-.13-93.46c-.03-21.54,17.46-39.08,39-39.11l93.46-.13c21.54-.03,39.08,17.46,39.11,39l.13,93.46ZM190.21,150.97"/>
  <path class="cls-1" d="M104.28,50.62c-29.64.04-53.72,24.19-53.67,53.82.04,29.64,24.19,53.72,53.83,53.67,29.63-.04,53.72-24.19,53.67-53.83-.04-29.63-24.19-53.71-53.83-53.67h0ZM104.41,139.6c-19.43.03-35.27-15.75-35.29-35.19-.03-19.43,15.76-35.26,35.19-35.29s35.27,15.76,35.29,35.19c.03,19.44-15.76,35.26-35.19,35.29h0ZM104.41,139.6"/>
  <path class="cls-1" d="M160.26,34.84c-3.57,0-7.07,1.45-9.58,3.98-2.53,2.52-3.98,6.03-3.97,9.61s1.47,7.06,4,9.59c2.52,2.51,6.02,3.96,9.59,3.96,3.58,0,7.06-1.46,9.59-3.98,2.53-2.53,3.97-6.04,3.96-9.6,0-3.58-1.46-7.08-3.99-9.6-2.52-2.53-6.02-3.96-9.6-3.96h0ZM160.26,34.84"/>
</svg>