<?xml version="1.0" encoding="UTF-8"?>
<svg id="Camada_1" data-name="Camada 1" xmlns="http://www.w3.org/2000/svg" viewBox="0 0 187.19 187.19">
  <defs>
    <style>
      .cls-1 {
        fill: #f7e8ce;
        fill-rule: evenodd;
      }
    </style>
  </defs>
  <path class="cls-1" d="M182.6,160.48l-40.67-40.67c-.22-.22-.47-.37-.69-.57,8-12.14,12.67-26.67,12.67-42.29C153.91,34.46,119.46,0,76.96,0S0,34.46,0,76.96s34.45,76.96,76.96,76.96c15.62,0,30.15-4.67,42.29-12.67.2.23.35.48.57.69l40.67,40.67c6.11,6.11,16.01,6.11,22.12,0,6.11-6.11,6.11-16.01,0-22.12h0ZM76.96,127.24c-27.77,0-50.28-22.51-50.28-50.28s22.51-50.28,50.28-50.28,50.28,22.51,50.28,50.28-22.51,50.28-50.28,50.28h0ZM76.96,127.24"/>
</svg>