<?xml version="1.0" encoding="UTF-8"?>
<svg id="Camada_1" data-name="Camada 1" xmlns="http://www.w3.org/2000/svg" viewBox="0 0 157.34 208.21">
  <defs>
    <style>
      .cls-1 {
        fill: #f7e8ce;
      }
    </style>
  </defs>
  <g id="hAzbpO.tif">
    <g>
      <path class="cls-1" d="M60.12.71l92.33,40.95c4.15,1.84,6.03,6.7,4.18,10.85h0c-1.84,4.15-6.7,6.03-10.85,4.18l-7.87-3.49-58.26,131.41c-25.22,47.52-94.92,16.63-76.61-33.98L61.32,19.24l-7.87-3.49c-4.15-1.84-6.03-6.7-4.18-10.85h0c1.84-4.15,6.7-6.03,10.85-4.18ZM122.34,46.75l-45.8-20.31-16.67,37.59c12.2,4.62,25.04.88,37.59,2.6,4.95.68,9.81,1.85,14.55,3.42l10.34-23.31ZM105.34,85.1c-17.21-5.45-35.25,1.82-52.3-5.65l-34.62,78.02c-7.21,19.15,10.3,38.75,30.23,33.19,4.94-1.38,12.82-6.63,14.93-11.38l41.77-94.17Z"/>
      <path class="cls-1" d="M54.47,108.79h.02c4.65,0,8.42,3.77,8.42,8.42h0c0,4.65-3.77,8.42-8.42,8.42h-.02c-4.65,0-8.42-3.77-8.42-8.42h0c0-4.65,3.77-8.42,8.42-8.42Z" transform="translate(-74.74 119.5) rotate(-66.08)"/>
      <rect class="cls-1" x="45.86" y="148.37" width="16.86" height="16.84" rx="8.42" ry="8.42" transform="translate(-111.04 142.85) rotate(-66.08)"/>
    </g>
  </g>
</svg>