<?xml version="1.0" encoding="UTF-8"?>
<svg id="Camada_1" data-name="Camada 1" xmlns="http://www.w3.org/2000/svg" viewBox="0 0 192.83 192.83">
  <defs>
    <style>
      .cls-1 {
        fill: #f7e8ce;
      }
    </style>
  </defs>
  <path class="cls-1" d="M96.42,192.83c-16.87,0-33.43-4.47-48.09-12.95l-24.9,8.58c-5.63,1.94-11.25-2.94-10.11-8.79l5.17-26.63C5.7,135.54-.7,114.76.06,92.96,1.74,44.57,39.97,4.35,88.22.34c56.85-4.72,104.62,40.2,104.62,96.07s-43.25,96.42-96.42,96.42ZM50.06,164.12l2.91,1.82c13.09,8.21,28.12,12.55,43.45,12.55,48.34,0,87.05-42,81.55-91.43-4.19-37.65-34.49-67.97-72.14-72.18C56.38,9.34,14.35,48.06,14.35,96.42c0,18.41,6.03,35.86,17.43,50.45l2.02,2.58-3.8,19.56c-.19.97.74,1.77,1.67,1.45l18.39-6.33Z"/>
  <path class="cls-1" d="M47.74,59.37s5.66-9.89,10.27-10.45c4.61-.57,10.55-.57,12.15,2.45,1.6,3.01,8.76,20.53,8.76,20.53,0,0,1.23,3.01-.66,5.93-1.88,2.92-6.12,7.16-6.12,7.16,0,0-2.36,3.01,0,6.22,2.35,3.2,6.01,9.09,13.56,16.64,7.54,7.55,22.03,12.94,22.03,12.94,0,0,2.07.28,3.4-1.04,1.31-1.32,8.48-10.27,8.48-10.27,0,0,2.3-2.96,6.12-1.22,3.81,1.74,20.34,9.98,20.34,9.98,0,0,1.93.7,1.93,3.62s-1.18,10.06-3.6,12.48c-2.42,2.42-9.48,9.86-20.09,9.86s-35.89-8.64-49.35-22.1c-13.47-13.47-25.43-27.13-28.25-39.56-2.83-12.43-2.45-18.05,1.03-23.17Z"/>
</svg>