<?xml version="1.0" encoding="UTF-8"?>
<svg id="Camada_1" data-name="Camada 1" xmlns="http://www.w3.org/2000/svg" viewBox="0 0 205.78 185.19">
  <defs>
    <style>
      .cls-1 {
        fill: #f7e8ce;
      }
    </style>
  </defs>
  <path class="cls-1" d="M104.88,15.89s44.23,0,61.21,4.58c9.37,2.52,16.75,9.95,19.25,19.37,4.55,17.09,4.55,52.75,4.55,52.75,0,0,0,35.66-4.55,52.75-2.5,9.43-9.88,16.85-19.25,19.37-16.98,4.58-61.21,4.58-61.21,4.58,0,0-48.2,0-65.18-4.58-9.37-2.52-16.75-9.95-19.25-19.37-4.55-17.09-4.55-52.75-4.55-52.75,0,0,0-35.66,4.55-52.75,2.5-9.43,9.88-16.85,19.25-19.37,16.98-4.58,65.18-4.58,65.18-4.58M136.5,84.61l-49.19-27.98c-6.12-3.48-13.72.94-13.72,7.98v55.96c0,7.04,7.6,11.46,13.72,7.98l49.19-27.98c6.19-3.52,6.19-12.44,0-15.96ZM104.88,0c-5.15,0-50.84.14-69.32,5.13-14.83,3.99-26.51,15.73-30.47,30.64C.14,54.32,0,88.73,0,92.59s.14,38.27,5.08,56.84c3.96,14.9,15.64,26.64,30.48,30.63,18.47,4.98,64.16,5.12,69.31,5.12,4.74,0,46.87-.14,65.35-5.13,14.83-3.99,26.51-15.73,30.47-30.64,4.94-18.55,5.08-52.96,5.08-56.83s-.14-38.27-5.08-56.84c-3.96-14.9-15.64-26.64-30.48-30.63C151.75.14,109.62,0,104.88,0h0Z"/>
</svg>